<?xml version="1.0" encoding="UTF-8"?>
<svg width="512" height="512" viewBox="0 0 512 512" xmlns="http://www.w3.org/2000/svg">
  <!-- Background Circle with Gradient -->
  <defs>
    <linearGradient id="bgGradient" x1="0%" y1="0%" x2="100%" y2="100%">
      <stop offset="0%" style="stop-color:#667eea"/>
      <stop offset="100%" style="stop-color:#764ba2"/>
    </linearGradient>
  </defs>
  
  <!-- Main Circle -->
  <circle cx="256" cy="256" r="240" fill="url(#bgGradient)"/>
  
  <!-- Globe Grid -->
  <g fill="none" stroke="rgba(255,255,255,0.2)" stroke-width="4">
    <circle cx="256" cy="256" r="180"/>
    <path d="M256 76 L256 436"/>
    <path d="M76 256 L436 256"/>
    <path d="M256 76 A180 180 0 0 1 436 256"/>
    <path d="M256 76 A180 180 0 0 0 76 256"/>
    <path d="M256 436 A180 180 0 0 1 76 256"/>
    <path d="M256 436 A180 180 0 0 0 436 256"/>
  </g>
  
  <!-- Clock Hands -->
  <g stroke="white" stroke-width="8" stroke-linecap="round">
    <!-- Hour Hand -->
    <line x1="256" y1="256" x2="256" y2="160" transform="rotate(45 256 256)"/>
    <!-- Minute Hand -->
    <line x1="256" y1="256" x2="256" y2="120" transform="rotate(90 256 256)"/>
  </g>
  
  <!-- Center Circle -->
  <circle cx="256" cy="256" r="16" fill="white"/>
</svg> 